#N canvas 242 161 944 614 10;
#X obj 16 420 netsend -u;
#X obj 224 8 netreceive -u -b 64000;
#X obj 224 30 route 79;
#X obj 224 51 sel 75;
#X msg 47 237 send test start;
#X msg 123 288 send test end;
#X obj 300 230 tgl 30 0 empty empty empty 17 7 0 10 -262144 -1 -1 0
1;
#X msg 258 100 1;
#X obj 300 69 sel 76;
#X msg 300 100 0;
#X msg 224 100 0;
#X msg 334 100 1;
#X obj 85 420 tgl 15 0 test empty empty 17 7 0 10 -262144 -1 -1 0 1
;
#X msg 47 297 1;
#X msg 123 336 0;
#X obj 16 31 loadbang;
#X obj 47 262 spigot 1, f 30;
#X obj 123 312 spigot 0, f 23;
#X msg 42 359 disconnect;
#X obj 333 365 sel 78;
#X obj 333 403 bng 15 250 50 0 empty empty empty 17 7 0 10 -262144
-1 -1;
#X text 335 348 soundoff;
#X msg 210 402 send soundoff;
#X obj 550 19 bng 15 250 50 0 empty empty empty 17 7 0 10 -262144 -1
-1;
#X obj 550 80 t b b;
#X msg 550 342 start;
#X obj 550 486 readsf~;
#X obj 551 517 dac~;
#X obj 590 19 bng 15 250 50 0 empty empty empty 17 7 0 10 -262144 -1
-1;
#X obj 590 130 t b b;
#X obj 628 19 bng 15 250 50 0 empty empty empty 17 7 0 10 -262144 -1
-1;
#X obj 628 184 t b b;
#X obj 670 19 bng 15 250 50 0 empty empty empty 17 7 0 10 -262144 -1
-1;
#X obj 670 234 t b b;
#X obj 708 19 bng 15 250 50 0 empty empty empty 17 7 0 10 -262144 -1
-1;
#X obj 708 284 t b b;
#X text 688 18 4;
#X text 727 18 5;
#X msg 16 69 \; pd dsp 1;
#X text 568 18 a;
#X text 609 18 b;
#X text 647 18 c;
#X msg 577 105 open sound_stimuli/event_1.wav;
#X msg 617 156 open sound_stimuli/event_2.wav;
#X msg 655 209 open sound_stimuli/event_3.wav;
#X msg 697 261 open sound_stimuli/event_4.wav;
#X msg 735 309 open sound_stimuli/event_5.wav;
#X msg 16 208 connect 192.168.1.71 64000;
#X text 747 63 Stimuli trigger;
#X text 106 420 send soundoff to confirm communication \, button to
the right should flicker if all OK;
#X text 20 189 change to appropriate IP;
#X connect 1 0 2 0;
#X connect 2 0 3 0;
#X connect 3 0 7 0;
#X connect 3 0 10 0;
#X connect 3 1 8 0;
#X connect 4 0 16 0;
#X connect 5 0 17 0;
#X connect 7 0 6 0;
#X connect 7 0 17 1;
#X connect 8 0 9 0;
#X connect 8 0 11 0;
#X connect 8 1 19 0;
#X connect 9 0 6 0;
#X connect 9 0 17 1;
#X connect 10 0 16 1;
#X connect 11 0 16 1;
#X connect 13 0 12 0;
#X connect 14 0 12 0;
#X connect 15 0 9 0;
#X connect 15 0 11 0;
#X connect 15 0 38 0;
#X connect 16 0 13 0;
#X connect 16 0 0 0;
#X connect 17 0 0 0;
#X connect 17 0 14 0;
#X connect 18 0 0 0;
#X connect 19 0 20 0;
#X connect 22 0 0 0;
#X connect 23 0 24 0;
#X connect 24 0 25 0;
#X connect 24 1 42 0;
#X connect 25 0 26 0;
#X connect 26 0 27 0;
#X connect 26 0 27 1;
#X connect 28 0 29 0;
#X connect 29 0 25 0;
#X connect 29 1 43 0;
#X connect 30 0 31 0;
#X connect 31 0 25 0;
#X connect 31 1 44 0;
#X connect 32 0 33 0;
#X connect 33 0 25 0;
#X connect 33 1 45 0;
#X connect 34 0 35 0;
#X connect 35 0 25 0;
#X connect 35 1 46 0;
#X connect 42 0 26 0;
#X connect 43 0 26 0;
#X connect 44 0 26 0;
#X connect 45 0 26 0;
#X connect 46 0 26 0;
#X connect 47 0 0 0;
